<?xml version="1.0" standalone="no"?>
<!DOCTYPE svg PUBLIC "-//W3C//DTD SVG 20010904//EN"
 "http://www.w3.org/TR/2001/REC-SVG-20010904/DTD/svg10.dtd">
<svg version="1.0" xmlns="http://www.w3.org/2000/svg"
 width="300.000000pt" height="300.000000pt" viewBox="0 0 300.000000 300.000000"
 preserveAspectRatio="xMidYMid meet" fill="">

<g transform="translate(0.000000,300.000000) scale(0.100000,-0.100000)" stroke="none">
<path fill="#272a31" d="M1350 2991 c-622 -66 -1146 -515 -1300 -1115 -107 -420 -31 -859 211
-1218 84 -125 275 -315 398 -397 179 -119 356 -192 564 -233 158 -31 396 -31
554 0 309 61 554 192 779 416 225 225 365 491 420 796 24 129 24 390 0 520
-55 306 -195 570 -420 796 -280 279 -608 422 -1006 438 -69 2 -159 1 -200 -3z
m376 -146 c277 -48 517 -170 720 -367 165 -160 278 -338 348 -548 49 -147 66
-259 66 -430 0 -171 -17 -283 -66 -430 -70 -210 -183 -388 -348 -548 -263
-255 -578 -382 -946 -382 -162 0 -287 19 -427 65 -414 137 -729 452 -868 868
-48 143 -67 267 -67 427 0 378 142 712 415 977 201 195 441 319 712 367 109
19 350 20 461 1z"/>
<path fill="#272a31" d="M1288 2703 l53 -36 -3 -76 -3 -75 -54 -38 -54 -38 286 0 287 0 0 81
0 80 -32 -26 c-101 -81 -88 -76 -184 -73 l-89 3 -3 77 -3 78 46 27 c91 55 96
52 -110 53 l-189 0 52 -37z"/>
<path fill="#272a31" d="M2070 2628 c0 -2 7 -27 15 -57 l14 -54 -47 -59 -47 -59 -68 4 c-38 3
-65 1 -60 -4 49 -48 348 -284 379 -299 48 -24 123 -26 164 -5 60 31 77 114 39
193 -17 34 -59 75 -187 181 -160 132 -202 165 -202 159z m208 -249 c28 -23 53
-52 57 -66 12 -50 -51 -121 -97 -110 -25 7 -117 77 -118 90 0 10 93 127 101
127 4 0 29 -19 57 -41z"/>
<path fill="#272a31" d="M866 2559 c-33 -11 -78 -33 -102 -49 -112 -78 -183 -240 -130 -299
88 -97 357 14 441 182 35 70 33 120 -4 158 -26 26 -36 29 -88 29 -32 -1 -85
-10 -117 -21z m56 -108 c74 -66 11 -185 -89 -166 -44 8 -73 47 -73 100 0 36 5
48 31 69 42 36 89 35 131 -3z"/>
<path fill="#272a31" d="M1330 2335 c-277 -56 -521 -260 -621 -520 -50 -128 -62 -202 -56
-350 4 -111 9 -144 35 -225 44 -135 109 -238 211 -341 167 -166 366 -249 601
-249 235 0 434 83 601 249 166 167 249 366 249 601 0 408 -289 759 -688 836
-90 17 -244 17 -332 -1z m279 -126 c155 -25 285 -92 397 -203 198 -199 263
-481 170 -746 -35 -103 -81 -174 -166 -261 -200 -203 -481 -269 -750 -175
-236 82 -418 294 -466 542 -92 484 331 922 815 843z"/>
<path fill="#FFFF00" d="M1459 2089 c-19 -19 -21 -28 -15 -88 l7 -67 -33 -24 c-18 -14 -37
-23 -42 -22 -22 7 -67 -22 -73 -47 -3 -14 -12 -35 -20 -47 -15 -23 -23 -225
-10 -259 5 -14 1 -28 -13 -45 l-20 -25 -27 34 -27 34 -13 -38 c-7 -20 -10 -41
-7 -46 3 -5 1 -9 -4 -9 -5 0 -9 -11 -9 -25 0 -13 2 -24 6 -23 3 0 8 -1 11 -2
13 -5 120 -6 120 -1 0 3 -9 17 -20 31 -28 35 -25 40 21 40 32 0 42 4 46 20 3
11 13 20 22 20 13 0 16 -13 16 -83 0 -76 3 -86 33 -133 31 -50 32 -52 17 -87
-21 -51 -19 -84 10 -146 l25 -53 -21 -34 c-11 -19 -25 -34 -30 -34 -5 0 -9 -3
-9 -7 0 -5 23 -8 50 -8 l50 0 1 90 c0 71 2 85 10 65 6 -14 8 -53 6 -87 l-5
-63 50 0 50 0 -26 31 c-31 37 -31 35 -5 101 20 52 22 102 4 170 -6 21 -1 34
18 58 31 36 40 77 35 159 -2 49 0 61 12 61 8 0 21 -9 28 -20 8 -14 23 -20 47
-20 41 0 42 -2 14 -41 -11 -16 -19 -29 -17 -30 21 -6 111 -2 120 6 16 13 22
45 9 45 -6 0 -8 7 -5 15 4 8 1 15 -5 15 -6 0 -8 7 -5 15 4 8 1 15 -5 15 -6 0
-8 7 -5 15 11 27 -11 16 -29 -15 -23 -38 -33 -38 -52 -1 -13 26 -13 33 1 66 8
20 13 49 10 64 -3 14 -8 53 -12 86 -3 33 -12 70 -20 82 -8 12 -14 29 -14 38 0
25 -38 55 -69 55 -16 0 -34 7 -41 15 -7 8 -19 15 -26 15 -13 0 -21 39 -13 65
1 6 2 28 1 50 -4 67 -60 97 -103 54z m-71 -432 c38 -57 21 -125 -36 -142 -17
-5 -24 -1 -31 17 -5 14 -5 30 1 42 6 10 8 36 5 57 -4 30 -1 41 11 49 24 14 25
13 50 -23z m290 24 c9 -5 11 -17 6 -35 -4 -16 -1 -45 6 -67 11 -34 11 -42 -1
-54 -20 -21 -57 -8 -74 26 -20 38 -19 66 6 105 21 35 34 40 57 25z m-171 -373
c-3 -7 -5 -2 -5 12 0 14 2 19 5 13 2 -7 2 -19 0 -25z m3 -116 c-7 -13 -9 -8
-9 23 0 35 1 37 10 17 6 -15 5 -30 -1 -40z"/>
<path fill="#272a31" d="M2532 2143 c-24 -41 -42 -76 -40 -78 4 -4 161 25 167 31 4 3 -68 113
-79 119 -3 1 -24 -31 -48 -72z"/>
<path fill="#272a31" d="M467 1957 c-30 -92 -53 -167 -50 -167 3 0 26 18 51 40 25 22 50 39
56 37 15 -5 8 -84 -10 -119 -15 -28 -60 -58 -89 -58 -50 0 -95 52 -95 108 0
43 44 125 94 177 25 27 45 49 43 50 -1 1 -31 12 -65 23 -58 19 -63 20 -57 4
17 -40 15 -51 -13 -93 -66 -97 -94 -276 -58 -363 37 -89 125 -100 203 -25 69
69 123 201 123 306 0 26 8 45 27 65 30 32 31 30 -22 49 -36 13 -42 21 -61 74
l-21 59 -56 -167z"/>
<path fill="#272a31" d="M2527 1979 c-49 -28 -58 -110 -30 -266 16 -89 14 -118 -7 -97 -16 16
-40 126 -40 186 0 31 7 78 16 104 8 25 14 47 12 49 -2 1 -33 -5 -70 -14 l-67
-16 25 -28 c18 -21 24 -40 24 -75 0 -123 47 -273 98 -313 57 -45 125 -5 137
79 4 28 0 88 -9 145 -9 53 -16 108 -16 123 0 36 22 26 37 -17 14 -41 17 -208
3 -243 -11 -31 -6 -32 69 -14 l51 11 -24 31 c-19 25 -24 47 -28 116 -9 168
-98 287 -181 239z"/>
<path fill="#272a31" d="M2293 980 l-101 -90 19 -61 c11 -34 17 -64 15 -67 -3 -2 -30 9 -60
26 l-54 31 -114 -101 c-62 -55 -117 -105 -123 -110 -6 -6 14 -7 56 -3 l66 7
50 -57 50 -58 -14 -55 c-8 -30 -12 -56 -10 -59 3 -2 124 103 270 234 147 130
265 238 263 240 -1 2 -29 -2 -60 -8 l-58 -10 -49 53 -49 53 6 63 c3 34 4 62 2
62 -2 0 -50 -40 -105 -90z m87 -171 c29 -36 30 -39 19 -91 l-12 -53 -28 83
c-46 137 -44 129 -25 113 9 -8 30 -31 46 -52z m-75 -200 c5 -5 -11 -9 -45 -9
-50 0 -57 3 -97 42 -24 23 -43 46 -43 50 0 8 169 -68 185 -83z"/>
<path fill="#272a31" d="M2585 1025 c-14 -13 -25 -36 -25 -50 0 -33 42 -75 75 -75 33 0 75 42
75 75 0 33 -42 75 -75 75 -14 0 -37 -11 -50 -25z m35 1 c0 -2 -8 -10 -17 -17
-16 -13 -17 -12 -4 4 13 16 21 21 21 13z m52 -13 c10 -9 18 -20 18 -25 0 -11
-38 14 -44 29 -7 18 4 16 26 -4z m-38 -24 c-3 -5 -10 -7 -15 -3 -5 3 -7 10 -3
15 3 5 10 7 15 3 5 -3 7 -10 3 -15z m-18 -36 c12 -16 26 -25 30 -21 4 4 1 14
-5 22 -17 20 3 30 28 14 19 -11 19 -14 4 -30 -9 -10 -25 -18 -36 -18 -24 0
-57 27 -57 47 0 20 12 16 36 -14z"/>
<path fill="#272a31" d="M580 903 c-8 -3 -25 -15 -37 -26 -84 -76 23 -261 203 -348 63 -31 85
-46 94 -69 7 -17 15 -30 19 -30 3 0 17 16 29 35 23 32 28 34 88 37 l63 3 -141
108 c-77 60 -138 102 -136 95 29 -73 41 -118 35 -124 -10 -10 -82 24 -107 51
-12 13 -24 41 -27 64 -5 35 -2 44 25 71 39 39 84 40 137 4 49 -33 72 -62 110
-135 l30 -58 43 54 42 55 -33 0 c-27 0 -38 8 -75 55 -87 114 -268 192 -362
158z"/>
<path fill="#272a31" d="M1170 570 c0 -3 21 -17 48 -33 59 -34 182 -149 182 -171 0 -9 -25
-32 -55 -52 -30 -20 -55 -38 -55 -40 0 -2 87 -4 193 -4 l192 0 -62 41 c-35 23
-63 47 -63 53 0 18 140 151 190 180 l45 26 -135 0 -135 0 29 -23 29 -24 -27
-36 c-16 -21 -31 -37 -35 -37 -4 0 -22 15 -39 33 l-32 33 36 27 37 26 -171 3
c-95 2 -172 1 -172 -2z"/>
</g>
</svg>
